<?xml version="1.0" encoding="UTF-8" standalone="no"?>
<!DOCTYPE svg PUBLIC "-//W3C//DTD SVG 1.1//EN"
 "http://www.w3.org/Graphics/SVG/1.1/DTD/svg11.dtd">
<!-- Generated by graphviz version 2.36.0 (20140111.2315)
 -->
<!-- Title: G Pages: 1 -->
<svg width="847pt" height="902pt"
 viewBox="0.00 0.00 847.00 902.00" xmlns="http://www.w3.org/2000/svg" xmlns:xlink="http://www.w3.org/1999/xlink">
<g id="graph0" class="graph" transform="scale(1 1) rotate(0) translate(4 898)">
<title>G</title>
<polygon fill="white" stroke="none" points="-4,4 -4,-898 843,-898 843,4 -4,4"/>
<g id="clust1" class="cluster"><title>cluster_Global</title>
<path fill="none" stroke="gray" d="M138,-98C138,-98 819,-98 819,-98 825,-98 831,-104 831,-110 831,-110 831,-874 831,-874 831,-880 825,-886 819,-886 819,-886 138,-886 138,-886 132,-886 126,-880 126,-874 126,-874 126,-110 126,-110 126,-104 132,-98 138,-98"/>
<text text-anchor="middle" x="478.5" y="-873.2" font-family="Times,serif" font-size="11.00" fill="gray">Global</text>
</g>
<g id="clust2" class="cluster"><title>cluster_\Swag</title>
<path fill="none" stroke="gray" d="M146,-150C146,-150 811,-150 811,-150 817,-150 823,-156 823,-162 823,-162 823,-846 823,-846 823,-852 817,-858 811,-858 811,-858 146,-858 146,-858 140,-858 134,-852 134,-846 134,-846 134,-162 134,-162 134,-156 140,-150 146,-150"/>
<text text-anchor="middle" x="478.5" y="-845.2" font-family="Times,serif" font-size="11.00" fill="gray">Swag</text>
</g>
<g id="clust3" class="cluster"><title>cluster_\Swag\App</title>
<path fill="none" stroke="gray" d="M302,-158C302,-158 803,-158 803,-158 809,-158 815,-164 815,-170 815,-170 815,-818 815,-818 815,-824 809,-830 803,-830 803,-830 302,-830 302,-830 296,-830 290,-824 290,-818 290,-818 290,-170 290,-170 290,-164 296,-158 302,-158"/>
<text text-anchor="middle" x="552.5" y="-817.2" font-family="Times,serif" font-size="11.00" fill="gray">App</text>
</g>
<g id="clust5" class="cluster"><title>cluster_\Swag\App\Utils</title>
<path fill="none" stroke="gray" d="M637,-676C637,-676 795,-676 795,-676 801,-676 807,-682 807,-688 807,-688 807,-790 807,-790 807,-796 801,-802 795,-802 795,-802 637,-802 637,-802 631,-802 625,-796 625,-790 625,-790 625,-688 625,-688 625,-682 631,-676 637,-676"/>
<text text-anchor="middle" x="716" y="-789.2" font-family="Times,serif" font-size="11.00" fill="gray">Utils</text>
</g>
<g id="clust6" class="cluster"><title>cluster_\Swag\App\Models</title>
<path fill="none" stroke="gray" d="M310,-232C310,-232 540,-232 540,-232 546,-232 552,-238 552,-244 552,-244 552,-454 552,-454 552,-460 546,-466 540,-466 540,-466 310,-466 310,-466 304,-466 298,-460 298,-454 298,-454 298,-244 298,-244 298,-238 304,-232 310,-232"/>
<text text-anchor="middle" x="425" y="-453.2" font-family="Times,serif" font-size="11.00" fill="gray">Models</text>
</g>
<g id="clust7" class="cluster"><title>cluster_\Swag\App\Adapters</title>
<path fill="none" stroke="gray" d="M674,-596C674,-596 758,-596 758,-596 764,-596 770,-602 770,-608 770,-608 770,-656 770,-656 770,-662 764,-668 758,-668 758,-668 674,-668 674,-668 668,-668 662,-662 662,-656 662,-656 662,-608 662,-608 662,-602 668,-596 674,-596"/>
<text text-anchor="middle" x="716" y="-655.2" font-family="Times,serif" font-size="11.00" fill="gray">Adapters</text>
</g>
<g id="clust8" class="cluster"><title>cluster_\Swag\App\Collections</title>
<path fill="none" stroke="gray" d="M678,-462C678,-462 754,-462 754,-462 760,-462 766,-468 766,-474 766,-474 766,-576 766,-576 766,-582 760,-588 754,-588 754,-588 678,-588 678,-588 672,-588 666,-582 666,-576 666,-576 666,-474 666,-474 666,-468 672,-462 678,-462"/>
<text text-anchor="middle" x="716" y="-575.2" font-family="Times,serif" font-size="11.00" fill="gray">Collections</text>
</g>
<g id="clust9" class="cluster"><title>cluster_\Swag\App\Routes</title>
<path fill="none" stroke="gray" d="M643,-246C643,-246 789,-246 789,-246 795,-246 801,-252 801,-258 801,-258 801,-442 801,-442 801,-448 795,-454 789,-454 789,-454 643,-454 643,-454 637,-454 631,-448 631,-442 631,-442 631,-258 631,-258 631,-252 637,-246 643,-246"/>
<text text-anchor="middle" x="716" y="-441.2" font-family="Times,serif" font-size="11.00" fill="gray">Routes</text>
</g>
<g id="clust10" class="cluster"><title>cluster_\Swag\App\Routes\REST</title>
<path fill="none" stroke="gray" d="M651,-300C651,-300 781,-300 781,-300 787,-300 793,-306 793,-312 793,-312 793,-414 793,-414 793,-420 787,-426 781,-426 781,-426 651,-426 651,-426 645,-426 639,-420 639,-414 639,-414 639,-312 639,-312 639,-306 645,-300 651,-300"/>
<text text-anchor="middle" x="716" y="-413.2" font-family="Times,serif" font-size="11.00" fill="gray">REST</text>
</g>
<g id="clust11" class="cluster"><title>cluster_\Swag\App\Services</title>
<path fill="none" stroke="gray" d="M674,-166C674,-166 758,-166 758,-166 764,-166 770,-172 770,-178 770,-178 770,-226 770,-226 770,-232 764,-238 758,-238 758,-238 674,-238 674,-238 668,-238 662,-232 662,-226 662,-226 662,-178 662,-178 662,-172 668,-166 674,-166"/>
<text text-anchor="middle" x="716" y="-225.2" font-family="Times,serif" font-size="11.00" fill="gray">Services</text>
</g>
<g id="clust12" class="cluster"><title>cluster_\Swag\Framework</title>
<path fill="none" stroke="gray" d="M154,-340C154,-340 230,-340 230,-340 236,-340 242,-346 242,-352 242,-352 242,-454 242,-454 242,-460 236,-466 230,-466 230,-466 154,-466 154,-466 148,-466 142,-460 142,-454 142,-454 142,-352 142,-352 142,-346 148,-340 154,-340"/>
<text text-anchor="middle" x="192" y="-453.2" font-family="Times,serif" font-size="11.00" fill="gray">Framework</text>
</g>
<!-- \\Swag\\App\\Utils\\Swagifact_Custom_Field -->
<g id="node1" class="node"><title>\\Swag\\App\\Utils\\Swagifact_Custom_Field</title>
<polygon fill="none" stroke="black" points="798.5,-774 633.5,-774 633.5,-738 798.5,-738 798.5,-774"/>
<text text-anchor="middle" x="716" y="-753.2" font-family="Courier,monospace" font-size="11.00">Swagifact_Custom_Field</text>
</g>
<!-- \\acf_field -->
<g id="node19" class="node"><title>\\acf_field</title>
<ellipse fill="none" stroke="black" cx="505" cy="-72" rx="44.393" ry="18"/>
<text text-anchor="middle" x="505" y="-68.3" font-family="Times,serif" font-size="14.00" fill="gray">\acf_field</text>
</g>
<!-- \\Swag\\App\\Utils\\Swagifact_Custom_Field&#45;&gt;\\acf_field -->
<g id="edge1" class="edge"><title>\\Swag\\App\\Utils\\Swagifact_Custom_Field&#45;&gt;\\acf_field</title>
<path fill="none" stroke="black" d="M634.685,-737.856C631.138,-735.276 627.871,-732.34 625,-729 551.699,-643.73 578.499,-337.744 554,-228 543.794,-182.282 526.753,-130.557 515.961,-99.6483"/>
<polygon fill="none" stroke="black" points="519.186,-98.2694 512.559,-90.0028 512.584,-100.598 519.186,-98.2694"/>
</g>
<!-- \\Swag\\App\\Utils\\Settings_API -->
<g id="node2" class="node"><title>\\Swag\\App\\Utils\\Settings_API</title>
<polygon fill="none" stroke="black" points="765,-720 667,-720 667,-684 765,-684 765,-720"/>
<text text-anchor="middle" x="716" y="-699.2" font-family="Courier,monospace" font-size="11.00">Settings_API</text>
</g>
<!-- \\Swag\\App\\Models\\WPPost -->
<g id="node3" class="node"><title>\\Swag\\App\\Models\\WPPost</title>
<polygon fill="none" stroke="black" points="373.5,-276 316.5,-276 316.5,-240 373.5,-240 373.5,-276"/>
<text text-anchor="middle" x="345" y="-255.2" font-family="Courier,monospace" font-size="11.00">WPPost</text>
</g>
<!-- \\Swag\\Framework\\Model -->
<g id="node16" class="node"><title>\\Swag\\Framework\\Model</title>
<polygon fill="none" stroke="black" points="219,-384 165,-384 165,-348 219,-348 219,-384"/>
<text text-anchor="middle" x="192" y="-363.2" font-family="Courier,monospace" font-size="11.00">Model</text>
</g>
<!-- \\Swag\\App\\Models\\WPPost&#45;&gt;\\Swag\\Framework\\Model -->
<g id="edge2" class="edge"><title>\\Swag\\App\\Models\\WPPost&#45;&gt;\\Swag\\Framework\\Model</title>
<path fill="none" stroke="black" d="M316.398,-270.269C307.713,-274.529 298.243,-279.603 290,-285 264.624,-301.615 238.367,-323.907 219.581,-340.9"/>
<polygon fill="none" stroke="black" points="217.026,-338.493 212.011,-347.826 221.752,-343.657 217.026,-338.493"/>
</g>
<!-- \\Swag\\App\\Models\\Swagpath -->
<g id="node4" class="node"><title>\\Swag\\App\\Models\\Swagpath</title>
<polygon fill="none" stroke="black" points="540.5,-276 469.5,-276 469.5,-240 540.5,-240 540.5,-276"/>
<text text-anchor="middle" x="505" y="-255.2" font-family="Courier,monospace" font-size="11.00">Swagpath</text>
</g>
<!-- \\Swag\\App\\Models\\Swagpath&#45;&gt;\\Swag\\App\\Models\\WPPost -->
<g id="edge3" class="edge"><title>\\Swag\\App\\Models\\Swagpath&#45;&gt;\\Swag\\App\\Models\\WPPost</title>
<path fill="none" stroke="black" d="M469.326,-258C444.017,-258 409.734,-258 383.738,-258"/>
<polygon fill="none" stroke="black" points="383.51,-254.5 373.51,-258 383.509,-261.5 383.51,-254.5"/>
</g>
<!-- \\Swag\\App\\Models\\SwagUser -->
<g id="node5" class="node"><title>\\Swag\\App\\Models\\SwagUser</title>
<polygon fill="none" stroke="black" points="540.5,-384 469.5,-384 469.5,-348 540.5,-348 540.5,-384"/>
<text text-anchor="middle" x="505" y="-363.2" font-family="Courier,monospace" font-size="11.00">SwagUser</text>
</g>
<!-- \\Swag\\App\\Models\\SwagUser&#45;&gt;\\Swag\\Framework\\Model -->
<g id="edge4" class="edge"><title>\\Swag\\App\\Models\\SwagUser&#45;&gt;\\Swag\\Framework\\Model</title>
<path fill="none" stroke="black" d="M469.479,-366C437.47,-366 388.517,-366 346,-366"/>
</g>
<!-- \\Swag\\App\\Models\\Statement -->
<g id="node6" class="node"><title>\\Swag\\App\\Models\\Statement</title>
<polygon fill="none" stroke="black" points="543.5,-438 466.5,-438 466.5,-402 543.5,-402 543.5,-438"/>
<text text-anchor="middle" x="505" y="-417.2" font-family="Courier,monospace" font-size="11.00">Statement</text>
</g>
<!-- \\Swag\\App\\Models\\Statement&#45;&gt;\\Swag\\Framework\\Model -->
<g id="edge5" class="edge"><title>\\Swag\\App\\Models\\Statement&#45;&gt;\\Swag\\Framework\\Model</title>
<path fill="none" stroke="black" d="M471.509,-401.869C440.314,-386.181 391.367,-366 346,-366"/>
</g>
<!-- \\Swag\\App\\Models\\H5P -->
<g id="node7" class="node"><title>\\Swag\\App\\Models\\H5P</title>
<polygon fill="none" stroke="black" points="532,-330 478,-330 478,-294 532,-294 532,-330"/>
<text text-anchor="middle" x="505" y="-309.2" font-family="Courier,monospace" font-size="11.00">H5P</text>
</g>
<!-- \\Swag\\App\\Models\\Swagifact -->
<g id="node8" class="node"><title>\\Swag\\App\\Models\\Swagifact</title>
<polygon fill="none" stroke="black" points="383.5,-330 306.5,-330 306.5,-294 383.5,-294 383.5,-330"/>
<text text-anchor="middle" x="345" y="-309.2" font-family="Courier,monospace" font-size="11.00">Swagifact</text>
</g>
<!-- \\Swag\\App\\Models\\H5P&#45;&gt;\\Swag\\App\\Models\\Swagifact -->
<g id="edge7" class="edge"><title>\\Swag\\App\\Models\\H5P&#45;&gt;\\Swag\\App\\Models\\Swagifact</title>
<path fill="none" stroke="black" stroke-dasharray="1,5" d="M477.91,-312C455.137,-312 421.51,-312 393.908,-312"/>
<polygon fill="none" stroke="black" points="393.66,-308.5 383.66,-312 393.66,-315.5 393.66,-308.5"/>
</g>
<!-- \\Swag\\App\\Models\\H5P&#45;&gt;\\Swag\\Framework\\Model -->
<g id="edge6" class="edge"><title>\\Swag\\App\\Models\\H5P&#45;&gt;\\Swag\\Framework\\Model</title>
<path fill="none" stroke="black" d="M477.816,-326.899C447.212,-342.882 394.556,-366 346,-366"/>
<path fill="none" stroke="black" d="M344,-366C304.838,-366 259.963,-366 229.377,-366"/>
<polygon fill="none" stroke="black" points="229.188,-362.5 219.188,-366 229.188,-369.5 229.188,-362.5"/>
</g>
<!-- \\Swag\\App\\Adapters\\XAPIAdapter -->
<g id="node9" class="node"><title>\\Swag\\App\\Adapters\\XAPIAdapter</title>
<polygon fill="none" stroke="black" points="761.5,-640 670.5,-640 670.5,-604 761.5,-604 761.5,-640"/>
<text text-anchor="middle" x="716" y="-619.2" font-family="Courier,monospace" font-size="11.00">XAPIAdapter</text>
</g>
<!-- \\Swag\\App\\Collections\\Swagifacts -->
<g id="node10" class="node"><title>\\Swag\\App\\Collections\\Swagifacts</title>
<polygon fill="none" stroke="black" points="758,-506 674,-506 674,-470 758,-470 758,-506"/>
<text text-anchor="middle" x="716" y="-485.2" font-family="Courier,monospace" font-size="11.00">Swagifacts</text>
</g>
<!-- \\Swag\\Framework\\Collection -->
<g id="node17" class="node"><title>\\Swag\\Framework\\Collection</title>
<polygon fill="none" stroke="black" points="234,-438 150,-438 150,-402 234,-402 234,-438"/>
<text text-anchor="middle" x="192" y="-417.2" font-family="Courier,monospace" font-size="11.00">Collection</text>
</g>
<!-- \\Swag\\App\\Collections\\Swagifacts&#45;&gt;\\Swag\\Framework\\Collection -->
<g id="edge8" class="edge"><title>\\Swag\\App\\Collections\\Swagifacts&#45;&gt;\\Swag\\Framework\\Collection</title>
<path fill="none" stroke="black" d="M673.982,-500.566C622.91,-515.864 538.445,-539.933 506,-542"/>
<path fill="none" stroke="black" d="M504,-542C396.313,-548.862 280.891,-481.315 225.852,-443.887"/>
<polygon fill="none" stroke="black" points="227.766,-440.955 217.548,-438.155 223.789,-446.716 227.766,-440.955"/>
</g>
<!-- \\Swag\\App\\Collections\\Swagpaths -->
<g id="node11" class="node"><title>\\Swag\\App\\Collections\\Swagpaths</title>
<polygon fill="none" stroke="black" points="754.5,-560 677.5,-560 677.5,-524 754.5,-524 754.5,-560"/>
<text text-anchor="middle" x="716" y="-539.2" font-family="Courier,monospace" font-size="11.00">Swagpaths</text>
</g>
<!-- \\Swag\\App\\Collections\\Swagpaths&#45;&gt;\\Swag\\Framework\\Collection -->
<g id="edge9" class="edge"><title>\\Swag\\App\\Collections\\Swagpaths&#45;&gt;\\Swag\\Framework\\Collection</title>
<path fill="none" stroke="black" d="M677.208,-543.268C635.32,-544.378 565.776,-545.345 506,-542"/>
</g>
<!-- \\Swag\\App\\Routes\\REST\\XAPI_Statements -->
<g id="node12" class="node"><title>\\Swag\\App\\Routes\\REST\\XAPI_Statements</title>
<polygon fill="none" stroke="black" points="775,-398 657,-398 657,-362 775,-362 775,-398"/>
<text text-anchor="middle" x="716" y="-377.2" font-family="Courier,monospace" font-size="11.00">XAPI_Statements</text>
</g>
<!-- \\Swag\\App\\Routes\\REST\\Swagifact_Progress -->
<g id="node13" class="node"><title>\\Swag\\App\\Routes\\REST\\Swagifact_Progress</title>
<polygon fill="none" stroke="black" points="785,-344 647,-344 647,-308 785,-308 785,-344"/>
<text text-anchor="middle" x="716" y="-323.2" font-family="Courier,monospace" font-size="11.00">Swagifact_Progress</text>
</g>
<!-- \\Swag\\App\\Routes\\SwagAdmin -->
<g id="node14" class="node"><title>\\Swag\\App\\Routes\\SwagAdmin</title>
<polygon fill="none" stroke="black" points="754.5,-290 677.5,-290 677.5,-254 754.5,-254 754.5,-290"/>
<text text-anchor="middle" x="716" y="-269.2" font-family="Courier,monospace" font-size="11.00">SwagAdmin</text>
</g>
<!-- \\Swag\\App\\Services\\CurrentUser -->
<g id="node15" class="node"><title>\\Swag\\App\\Services\\CurrentUser</title>
<polygon fill="none" stroke="black" points="761.5,-210 670.5,-210 670.5,-174 761.5,-174 761.5,-210"/>
<text text-anchor="middle" x="716" y="-189.2" font-family="Courier,monospace" font-size="11.00">CurrentUser</text>
</g>
<!-- \\Swag\\App\\Services\\CurrentUser&#45;&gt;\\Swag\\App\\Models\\SwagUser -->
<g id="edge10" class="edge"><title>\\Swag\\App\\Services\\CurrentUser&#45;&gt;\\Swag\\App\\Models\\SwagUser</title>
<path fill="none" stroke="black" d="M674.052,-210.005C657.754,-218.333 639.475,-229.227 625,-242 584.941,-277.349 593.966,-303.545 554,-339 552.344,-340.469 550.594,-341.894 548.782,-343.269"/>
<polygon fill="none" stroke="black" points="546.764,-340.409 540.53,-348.976 550.746,-346.167 546.764,-340.409"/>
</g>
<!-- \\Iterator -->
<g id="node21" class="node"><title>\\Iterator</title>
<ellipse fill="none" stroke="black" cx="39" cy="-420" rx="38.9931" ry="18"/>
<text text-anchor="middle" x="39" y="-416.3" font-family="Times,serif" font-size="14.00" fill="gray">\Iterator</text>
</g>
<!-- \\Swag\\Framework\\Collection&#45;&gt;\\Iterator -->
<g id="edge12" class="edge"><title>\\Swag\\Framework\\Collection&#45;&gt;\\Iterator</title>
<path fill="none" stroke="black" stroke-dasharray="1,5" d="M149.739,-420C130.703,-420 107.983,-420 88.1665,-420"/>
<polygon fill="none" stroke="black" points="88.1037,-416.5 78.1037,-420 88.1036,-423.5 88.1037,-416.5"/>
</g>
<!-- \\InvalidPostTypeException -->
<g id="node18" class="node"><title>\\InvalidPostTypeException</title>
<polygon fill="none" stroke="black" points="805.5,-142 626.5,-142 626.5,-106 805.5,-106 805.5,-142"/>
<text text-anchor="middle" x="716" y="-121.2" font-family="Courier,monospace" font-size="11.00">InvalidPostTypeException</text>
</g>
<!-- \\Exception -->
<g id="node20" class="node"><title>\\Exception</title>
<ellipse fill="none" stroke="black" cx="505" cy="-18" rx="48.9926" ry="18"/>
<text text-anchor="middle" x="505" y="-14.3" font-family="Times,serif" font-size="14.00" fill="gray">\Exception</text>
</g>
<!-- \\InvalidPostTypeException&#45;&gt;\\Exception -->
<g id="edge11" class="edge"><title>\\InvalidPostTypeException&#45;&gt;\\Exception</title>
<path fill="none" stroke="black" d="M679.072,-105.778C641.306,-86.6243 582.149,-56.6211 543.723,-37.132"/>
<polygon fill="none" stroke="black" points="544.927,-33.8186 534.425,-32.4167 541.761,-40.0615 544.927,-33.8186"/>
</g>
</g>
</svg>
